<?xml version="1.0" encoding="utf-8"?>
<!-- Generator: Adobe Illustrator 28.1.0, SVG Export Plug-In . SVG Version: 6.00 Build 0)  -->
<svg version="1.1" id="Layer_1" xmlns="http://www.w3.org/2000/svg" xmlns:xlink="http://www.w3.org/1999/xlink" x="0px" y="0px"
	 viewBox="0 0 181 59" style="enable-background:new 0 0 181 59;" xml:space="preserve">
<style type="text/css">
	.st0{fill:#FFFFFF;}
	.st1{fill:#D4F0F5;}
</style>
<g>
	<path class="st0" d="M109.7,23.3l-0.1,0.1c-0.9-0.8-1.9-1.4-3.1-1.9c-1.2-0.5-2.5-0.7-4-0.7c-1.4,0-2.7,0.2-3.8,0.7
		c-1.2,0.4-2.1,1.1-3,1.9c-0.8,0.8-1.5,1.8-1.9,3c-0.5,1.2-0.7,2.6-0.7,4.1c0,1.7,0.2,3.2,0.7,4.7c0.4,1.4,1.1,2.7,2,3.8
		s1.9,1.9,3.2,2.5c1.3,0.6,2.8,0.9,4.6,0.9c0.6,0,1.3-0.1,1.9-0.2c0.6-0.1,1.2-0.3,1.8-0.6c0.6-0.3,1.1-0.6,1.6-0.9
		c0.5-0.4,1-0.8,1.4-1.3l0.2,0.1l-1.3,3.4c-0.8,0.3-1.7,0.6-2.7,0.7c-1,0.2-2,0.3-3,0.3c-2,0-3.9-0.3-5.6-0.9
		c-1.7-0.6-3.1-1.4-4.3-2.5c-1.2-1.1-2.2-2.4-2.8-3.9c-0.7-1.5-1-3.2-1-5c0-1,0.1-2.1,0.4-3.1c0.3-1,0.7-2,1.2-2.9
		c0.5-0.9,1.2-1.7,1.9-2.5c0.8-0.8,1.6-1.4,2.6-2c1-0.6,2-1,3.2-1.3c1.2-0.3,2.4-0.5,3.8-0.5c2.1,0,4.1,0.3,5.9,1L109.7,23.3z
		 M112.3,38.4c0-0.9,0.2-1.6,0.5-2.3c0.4-0.6,0.8-1.2,1.4-1.6c0.6-0.4,1.3-0.8,2-1.1c0.8-0.3,1.5-0.5,2.4-0.7
		c0.8-0.2,1.6-0.3,2.4-0.3c0.8-0.1,1.5-0.1,2.2-0.1v-0.8c0-0.7-0.1-1.3-0.3-1.9c-0.2-0.5-0.4-1-0.8-1.3c-0.3-0.4-0.8-0.6-1.2-0.8
		c-0.5-0.2-1-0.3-1.6-0.3c-0.4,0-0.8,0-1.2,0.1c-0.4,0.1-0.8,0.2-1.2,0.3c-0.4,0.2-0.8,0.4-1.3,0.6c-0.4,0.3-0.9,0.6-1.5,1l-0.2-0.1
		l1.1-2.3c0.4-0.2,0.7-0.3,1.1-0.4c0.4-0.1,0.7-0.2,1.1-0.3c0.4-0.1,0.7-0.1,1.1-0.1c0.4,0,0.8,0,1.2,0c1.2,0,2.1,0.1,2.9,0.4
		c0.8,0.3,1.5,0.7,2,1.2c0.5,0.5,0.9,1.1,1.2,1.7c0.2,0.6,0.4,1.3,0.4,2.1v5.4c0,0.9,0,1.8,0,2.5c0,0.7,0.1,1.3,0.1,1.8
		c0,0.5,0.1,0.9,0.1,1.3c0.1,0.3,0.1,0.6,0.2,0.9v0.1h-3.6v-0.1c0.1-0.2,0.1-0.4,0.1-0.6c0-0.2,0.1-0.5,0.1-0.8
		c-0.2,0.2-0.5,0.4-0.8,0.6c-0.3,0.2-0.7,0.4-1.1,0.6c-0.4,0.2-0.8,0.3-1.3,0.4c-0.5,0.1-1,0.2-1.6,0.2c-1.9,0-3.4-0.4-4.4-1.3
		C112.8,41.3,112.3,40.1,112.3,38.4z M123.2,33.6c-1,0-2,0.1-2.9,0.2c-0.9,0.1-1.7,0.3-2.5,0.6c-0.7,0.3-1.3,0.8-1.7,1.4
		c-0.4,0.6-0.6,1.4-0.6,2.4c0,1.3,0.3,2.3,1,3c0.6,0.7,1.5,1,2.7,1c0.5,0,1-0.1,1.4-0.2c0.4-0.2,0.8-0.3,1.2-0.6
		c0.3-0.2,0.6-0.5,0.9-0.7c0.2-0.3,0.4-0.5,0.5-0.8c0-0.4,0-0.9,0-1.4c0-0.5,0-1.1,0-1.7V33.6z M131,32.9c0-0.9,0-1.7,0-2.4
		c0-0.7-0.1-1.3-0.1-1.8c0-0.5-0.1-0.9-0.1-1.3c-0.1-0.3-0.1-0.6-0.2-0.9v-0.1h3.8v0.1c-0.1,0.3-0.2,0.6-0.2,0.9
		c-0.1,0.4-0.1,0.8-0.1,1.4c0.4-0.3,0.8-0.7,1.3-1c0.4-0.3,0.9-0.6,1.3-0.9c0.5-0.3,0.9-0.5,1.4-0.6c0.5-0.2,1-0.2,1.4-0.2
		c0.3,0,0.6,0,0.8,0c0.2,0,0.4,0.1,0.6,0.1c0.2,0,0.3,0.1,0.5,0.2c0.1,0.1,0.3,0.1,0.4,0.2l-0.8,3.1l-0.3-0.1
		c-0.1-0.5-0.4-0.9-0.7-1.2c-0.4-0.3-0.9-0.4-1.5-0.4c-0.3,0-0.7,0.1-1.1,0.2c-0.4,0.1-0.8,0.3-1.1,0.5c-0.4,0.2-0.8,0.5-1.2,0.7
		c-0.4,0.3-0.8,0.6-1.1,0.9c0,0.3,0,0.7,0,1c0,0.4,0,0.8,0,1.2v4.2c0,0.9,0,1.8,0,2.5c0,0.7,0.1,1.3,0.1,1.8c0,0.5,0.1,0.9,0.1,1.3
		c0.1,0.3,0.1,0.6,0.2,0.9v0.1h-3.8v-0.1c0.1-0.2,0.1-0.5,0.2-0.9c0.1-0.3,0.1-0.8,0.1-1.3c0-0.5,0.1-1.1,0.1-1.8c0-0.7,0-1.5,0-2.5
		V32.9z M151.6,43.6c-1.2,0-2.4-0.2-3.4-0.6c-1.1-0.4-2-0.9-2.8-1.7c-0.8-0.7-1.4-1.7-1.9-2.7c-0.4-1.1-0.7-2.3-0.7-3.8
		c0-1.2,0.2-2.4,0.6-3.4c0.4-1.1,1-2,1.7-2.8c0.7-0.8,1.6-1.4,2.6-1.8c1-0.4,2.1-0.7,3.2-0.7c1.1,0,2.2,0.2,3.1,0.6
		c1,0.4,1.8,0.9,2.5,1.7c0.7,0.7,1.3,1.7,1.7,2.7c0.4,1.1,0.6,2.3,0.7,3.7c-1.2,0-2.5,0-3.7,0c-1.2,0-2.5,0-3.9,0c-1,0-1.9,0-2.8,0
		c-0.9,0-1.7,0-2.4,0c0.1,1.1,0.2,2.2,0.5,3.1c0.3,0.9,0.7,1.7,1.2,2.4c0.5,0.6,1.1,1.1,1.9,1.5c0.7,0.4,1.6,0.5,2.5,0.5
		c0.6,0,1.2-0.1,1.8-0.2c0.6-0.2,1.1-0.4,1.5-0.6c0.5-0.3,0.9-0.6,1.2-0.9c0.4-0.4,0.7-0.8,0.9-1.2l0.2,0.1l-1.2,2.9
		c-0.6,0.3-1.3,0.6-2.1,0.8C153.8,43.5,152.8,43.6,151.6,43.6z M149.5,33.5c1.1,0,2.2,0,3.3,0c1.1,0,2.1,0,3-0.1
		c-0.1-1-0.3-1.8-0.6-2.6c-0.3-0.8-0.6-1.4-1.1-1.9c-0.4-0.5-0.9-0.9-1.5-1.2c-0.6-0.3-1.2-0.4-1.9-0.4c-0.6,0-1.2,0.1-1.8,0.4
		c-0.5,0.3-1,0.7-1.4,1.2c-0.4,0.5-0.7,1.2-1,1.9c-0.2,0.8-0.4,1.6-0.4,2.6c0.5,0,1,0,1.6,0C148.3,33.5,148.9,33.5,149.5,33.5z"/>
	<path class="st1" d="M47,18.3c4.4,0,8-3.6,8-8c0-4.4-3.6-8-8-8s-8,3.6-8,8C39,14.7,42.6,18.3,47,18.3z M47,6c2.4,0,4.3,1.9,4.3,4.3
		s-1.9,4.3-4.3,4.3c-2.4,0-4.3-1.9-4.3-4.3C42.7,7.9,44.7,6,47,6z"/>
	<path class="st1" d="M68.2,18.3c-0.8-1.3-1.7-2.5-2.8-3.6c-0.1,0-0.2,0-0.3,0c-1.3,0.2-2.6,0.6-3.8,1.2C59,17,57,18.6,55.5,20.7
		c-1.1,1.6-1.9,3.3-2.4,5.2c0,0.1,0,0.1-0.1,0.2l0,0.2c0,0.2-0.1,0.4-0.1,0.5l-5,26.2c-0.3,0-0.6,0-0.9,0c-0.3,0-0.6,0-0.9,0
		l-5-26.1c0-0.2-0.1-0.4-0.1-0.6l0-0.2c0-0.1,0-0.1-0.1-0.2c-0.4-1.9-1.2-3.6-2.4-5.2c-1.6-2.2-3.6-3.8-5.8-4.8
		c-1.3-0.6-2.7-1-4.1-1.2c-1,1.1-2,2.3-2.8,3.6c-2.5,4-3.9,8.6-3.9,13.4c0,13.8,11.2,25,25,25c13.8,0,25-11.2,25-25
		C72.1,26.9,70.7,22.3,68.2,18.3z M25.7,31.7c0-4.7,1.6-9.2,4.3-12.9c0,0,0,0,0,0c2.1,0.7,4.1,2.1,5.5,4c0.9,1.2,1.5,2.6,1.8,4
		c0,0,0,0.1,0,0.1l0,0.1c0,0.1,0.1,0.3,0.1,0.5l4.7,24.9C32.8,50.3,25.7,41.8,25.7,31.7z M51.8,52.5l4.7-25c0-0.1,0.1-0.3,0.1-0.5
		l0-0.1c0,0,0-0.1,0-0.1c0.3-1.5,0.9-2.8,1.8-4c1.4-2,3.4-3.3,5.5-4.1c2.8,3.7,4.3,8.2,4.3,12.9C68.3,41.8,61.3,50.3,51.8,52.5z"/>
	<path class="st0" d="M47,23.2c0.6,0,1.1-0.5,1.1-1.1c0-0.6-0.5-1.1-1.1-1.1s-1.1,0.5-1.1,1.1C45.9,22.7,46.4,23.2,47,23.2z"/>
	<path class="st0" d="M47,27.9c0.7,0,1.4-0.6,1.4-1.4c0-0.7-0.6-1.4-1.4-1.4c-0.7,0-1.4,0.6-1.4,1.4C45.7,27.3,46.3,27.9,47,27.9z"
		/>
	<path class="st0" d="M47,30c-1,0-1.8,0.8-1.8,1.8c0,1,0.8,1.8,1.8,1.8s1.8-0.8,1.8-1.8C48.8,30.8,48,30,47,30z"/>
	<path class="st0" d="M47,40.5c-0.6,0-1.1,0.5-1.1,1.1c0,0.6,0.5,1.1,1.1,1.1s1.1-0.5,1.1-1.1C48.1,41,47.6,40.5,47,40.5z"/>
	<path class="st0" d="M47,35.7c-0.7,0-1.4,0.6-1.4,1.4c0,0.7,0.6,1.4,1.4,1.4c0.7,0,1.4-0.6,1.4-1.4C48.4,36.4,47.8,35.7,47,35.7z"
		/>
</g>
</svg>
